name Run_30002_GRF.mot
datacolumns 19
datarows 23
range 0.689 0.711
endheader

time	     ground_force_vx	     ground_force_vy	     ground_force_vz	     ground_force_px	     ground_force_py	     ground_force_pz	   l_ground_force_vx	   l_ground_force_vy	   l_ground_force_vz	   l_ground_force_px	   l_ground_force_py	   l_ground_force_pz	     ground_torque_x	     ground_torque_y	     ground_torque_z	   l_ground_torque_x	   l_ground_torque_y	   l_ground_torque_z	
0.689	        147.30912800	       1336.61425800	         48.41270400	          0.80510000	          0.00000000	         -0.34049000	          0.00000000	          0.00000000	          0.00000000	          0.00000000	          0.00000000	          0.00000000	          0.00000000	         -1.43809400	          0.00000000	          0.00000000	          0.00000000	          0.00000000	
0.69	        150.21305800	       1320.24902300	         48.84405900	          0.80282500	          0.00000000	         -0.34066700	          0.00000000	          0.00000000	          0.00000000	          0.00000000	          0.00000000	          0.00000000	          0.00000000	         -1.52652500	          0.00000000	          0.00000000	          0.00000000	          0.00000000	
0.691	        152.99618500	       1303.66369600	         49.24807000	          0.80055500	          0.00000000	         -0.34084800	          0.00000000	          0.00000000	          0.00000000	          0.00000000	          0.00000000	          0.00000000	          0.00000000	         -1.61308000	          0.00000000	          0.00000000	          0.00000000	          0.00000000	
0.692	        155.66053800	       1286.86657700	         49.62239100	          0.79828900	          0.00000000	         -0.34103300	          0.00000000	          0.00000000	          0.00000000	          0.00000000	          0.00000000	          0.00000000	          0.00000000	         -1.69743000	          0.00000000	          0.00000000	          0.00000000	          0.00000000	
0.693	        158.20858800	       1269.86682100	         49.96485500	          0.79602700	          0.00000000	         -0.34122100	          0.00000000	          0.00000000	          0.00000000	          0.00000000	          0.00000000	          0.00000000	          0.00000000	         -1.77925500	          0.00000000	          0.00000000	          0.00000000	          0.00000000	
0.694	        160.64306600	       1252.67395000	         50.27349500	          0.79376700	          0.00000000	         -0.34141300	          0.00000000	          0.00000000	          0.00000000	          0.00000000	          0.00000000	          0.00000000	          0.00000000	         -1.85825000	          0.00000000	          0.00000000	          0.00000000	          0.00000000	
0.695	        162.96681200	       1235.29748500	         50.54655800	          0.79150900	          0.00000000	         -0.34160700	          0.00000000	          0.00000000	          0.00000000	          0.00000000	          0.00000000	          0.00000000	          0.00000000	         -1.93411800	          0.00000000	          0.00000000	          0.00000000	          0.00000000	
0.696	        165.18248000	       1217.74743700	         50.78254300	          0.78925100	          0.00000000	         -0.34180400	          0.00000000	          0.00000000	          0.00000000	          0.00000000	          0.00000000	          0.00000000	          0.00000000	         -2.00657900	          0.00000000	          0.00000000	          0.00000000	          0.00000000	
0.697	        167.29254200	       1200.03393600	         50.98019400	          0.78699200	          0.00000000	         -0.34200300	          0.00000000	          0.00000000	          0.00000000	          0.00000000	          0.00000000	          0.00000000	          0.00000000	         -2.07536500	          0.00000000	          0.00000000	          0.00000000	          0.00000000	
0.698	        169.29902600	       1182.16723600	         51.13853500	          0.78473200	          0.00000000	         -0.34220400	          0.00000000	          0.00000000	          0.00000000	          0.00000000	          0.00000000	          0.00000000	          0.00000000	         -2.14022600	          0.00000000	          0.00000000	          0.00000000	          0.00000000	
0.699	        171.20344500	       1164.15795900	         51.25684700	          0.78246800	          0.00000000	         -0.34240600	          0.00000000	          0.00000000	          0.00000000	          0.00000000	          0.00000000	          0.00000000	          0.00000000	         -2.20092700	          0.00000000	          0.00000000	          0.00000000	          0.00000000	
0.7	        173.00676000	       1146.01635700	         51.33470500	          0.78020000	          0.00000000	         -0.34260800	          0.00000000	          0.00000000	          0.00000000	          0.00000000	          0.00000000	          0.00000000	          0.00000000	         -2.25724800	          0.00000000	          0.00000000	          0.00000000	          0.00000000	
0.701	        174.70925900	       1127.75317400	         51.37196000	          0.77792800	          0.00000000	         -0.34281000	          0.00000000	          0.00000000	          0.00000000	          0.00000000	          0.00000000	          0.00000000	          0.00000000	         -2.30899100	          0.00000000	          0.00000000	          0.00000000	          0.00000000	
0.702	        176.31057700	       1109.37902800	         51.36872500	          0.77564900	          0.00000000	         -0.34301200	          0.00000000	          0.00000000	          0.00000000	          0.00000000	          0.00000000	          0.00000000	          0.00000000	         -2.35597100	          0.00000000	          0.00000000	          0.00000000	          0.00000000	
0.703	        177.80963100	       1090.90490700	         51.32538200	          0.77336500	          0.00000000	         -0.34321300	          0.00000000	          0.00000000	          0.00000000	          0.00000000	          0.00000000	          0.00000000	          0.00000000	         -2.39802600	          0.00000000	          0.00000000	          0.00000000	          0.00000000	
0.704	        179.20466600	       1072.34155300	         51.24255800	          0.77107400	          0.00000000	         -0.34341200	          0.00000000	          0.00000000	          0.00000000	          0.00000000	          0.00000000	          0.00000000	          0.00000000	         -2.43501000	          0.00000000	          0.00000000	          0.00000000	          0.00000000	
0.705	        180.49322500	       1053.70043900	         51.12110500	          0.76877600	          0.00000000	         -0.34360900	          0.00000000	          0.00000000	          0.00000000	          0.00000000	          0.00000000	          0.00000000	          0.00000000	         -2.46679700	          0.00000000	          0.00000000	          0.00000000	          0.00000000	
0.706	        181.67222600	       1034.99292000	         50.96208200	          0.76647200	          0.00000000	         -0.34380300	          0.00000000	          0.00000000	          0.00000000	          0.00000000	          0.00000000	          0.00000000	          0.00000000	         -2.49328000	          0.00000000	          0.00000000	          0.00000000	          0.00000000	
0.707	        182.73799100	       1016.23059100	         50.76673500	          0.76416100	          0.00000000	         -0.34399300	          0.00000000	          0.00000000	          0.00000000	          0.00000000	          0.00000000	          0.00000000	          0.00000000	         -2.51437200	          0.00000000	          0.00000000	          0.00000000	          0.00000000	
0.708	        183.68624900	        997.42541500	         50.53646100	          0.76184500	          0.00000000	         -0.34417900	          0.00000000	          0.00000000	          0.00000000	          0.00000000	          0.00000000	          0.00000000	          0.00000000	         -2.53000400	          0.00000000	          0.00000000	          0.00000000	          0.00000000	
0.709	        184.51231400	        978.58941700	         50.27278900	          0.75952300	          0.00000000	         -0.34436000	          0.00000000	          0.00000000	          0.00000000	          0.00000000	          0.00000000	          0.00000000	          0.00000000	         -2.54012700	          0.00000000	          0.00000000	          0.00000000	          0.00000000	
0.71	        185.21109000	        959.73498500	         49.97734100	          0.75719800	          0.00000000	         -0.34453600	          0.00000000	          0.00000000	          0.00000000	          0.00000000	          0.00000000	          0.00000000	          0.00000000	         -2.54471200	          0.00000000	          0.00000000	          0.00000000	          0.00000000	
0.711	        185.77719100	        940.87439000	         49.65180600	          0.75486900	          0.00000000	         -0.34470500	          0.00000000	          0.00000000	          0.00000000	          0.00000000	          0.00000000	          0.00000000	          0.00000000	         -2.54374600	          0.00000000	          0.00000000	          0.00000000	          0.00000000	
